<svg width="390.65" height="70.72887058952307" viewBox="0 0 389.89473684210526 70.59212693111843" class="looka-1j8o68f"><defs id="SvgjsDefs1177"></defs><g id="SvgjsG1178" featurekey="xG21Y3-0" transform="matrix(1.023391812865497,0,0,1.023391812865497,14.883040935672515,-5.8846483732524675)" fill="#000000"><path xmlns="http://www.w3.org/2000/svg" d="M38.481,69.952l-1.83,3.17H63.35l-1.83-3.17H38.481 M63.35,26.878H36.651l1.83,3.17h23.038L63.35,26.878   M40.311,33.218L30.622,50l9.689,16.782h19.378L69.378,50l-9.689-16.782H40.311 M35.736,74.707L21.471,50l14.264-24.707h28.529  L78.529,50L64.265,74.707H35.736" style="fill-rule: evenodd; clip-rule: evenodd;"></path><polyline xmlns="http://www.w3.org/2000/svg" points="77.614,35.736 82.189,27.811 95,50 82.189,72.189 77.614,64.264 85.85,50 77.614,35.736 " style="fill-rule: evenodd; clip-rule: evenodd;"></polyline><polyline xmlns="http://www.w3.org/2000/svg" points="17.811,72.189 5,50 17.811,27.811 22.386,35.736 14.151,50 22.386,64.264 17.811,72.189 " style="fill-rule: evenodd; clip-rule: evenodd;"></polyline></g><g id="SvgjsG1179" featurekey="n48U4P-0" transform="matrix(3.4747336647869442,0,0,3.4747336647869442,131.58303484320047,0.12452582332894124)" fill="#000000"><path d="M3.12 9.66 l1.9 7.02 l0.04 0 l1.72 -7.02 l2.76 0 l1.76 7 l0.04 0 l1.9 -7 l2.92 0 l-3.26 10.34 l-2.92 0 l-1.84 -6.94 l-0.04 0 l-1.76 6.94 l-2.94 0 l-3.28 -10.34 l3 0 z M22.12 9.38 c3.0134 0.01334 4.52 0.9933 4.52 2.94 l0 5.48 c0 1.0133 0.12 1.7467 0.36 2.2 l-2.88 0 c-0.10666 -0.32 -0.17332 -0.65334 -0.19998 -1 c-0.84 0.85334 -2 1.28 -3.48 1.28 c-1.08 0 -1.9367 -0.27334 -2.57 -0.82 s-0.95 -1.3067 -0.95 -2.28 c0 -0.94666 0.3 -1.68 0.9 -2.2 c0.61334 -0.54666 1.7267 -0.89332 3.34 -1.04 c1.1467 -0.12 1.8733 -0.27 2.18 -0.45 s0.46 -0.45666 0.46 -0.83 c0 -0.46666 -0.14 -0.81332 -0.42 -1.04 s-0.74666 -0.34 -1.4 -0.34 c-0.6 0 -1.0533 0.12334 -1.36 0.37 s-0.48666 0.64332 -0.54 1.19 l-2.84 0 c0.06666 -1.1333 0.53332 -1.9933 1.4 -2.58 s2.0266 -0.88 3.48 -0.88 z M19.76 17.06 c0 0.88 0.58 1.32 1.74 1.32 c1.52 -0.01334 2.2866 -0.79334 2.3 -2.34 l0 -1.1 c-0.22666 0.22666 -0.8 0.39332 -1.72 0.49998 c-0.8 0.09334 -1.3867 0.25668 -1.76 0.49002 s-0.56 0.61 -0.56 1.13 z M31.68 5.720000000000001 l0.000019531 5.2 l0.04 0 c0.30666 -0.46666 0.74332 -0.84 1.31 -1.12 s1.2167 -0.42 1.95 -0.42 c1.2667 0 2.2966 0.50666 3.09 1.52 s1.19 2.32 1.19 3.92 c0 1.6133 -0.39334 2.9266 -1.18 3.94 s-1.8267 1.52 -3.12 1.52 c-1.68 0 -2.8066 -0.53334 -3.38 -1.6 l-0.04 0 l0 1.32 l-2.7 0 l0 -14.28 l2.84 0 z M31.580000000000002 14.84 c0 1 0.21998 1.8 0.65998 2.4 s1.0267 0.9 1.76 0.9 c0.72 0 1.3033 -0.29334 1.75 -0.88 s0.67 -1.3933 0.67 -2.42 c0 -1.0133 -0.21666 -1.82 -0.65 -2.42 s-1.03 -0.9 -1.79 -0.9 c-0.74666 0 -1.3333 0.30666 -1.76 0.92 s-0.64 1.4133 -0.64 2.4 z M43.900000000000006 5.720000000000001 l0.000019531 5.2 l0.04 0 c0.30666 -0.46666 0.74332 -0.84 1.31 -1.12 s1.2167 -0.42 1.95 -0.42 c1.2667 0 2.2966 0.50666 3.09 1.52 s1.19 2.32 1.19 3.92 c0 1.6133 -0.39334 2.9266 -1.18 3.94 s-1.8267 1.52 -3.12 1.52 c-1.68 0 -2.8066 -0.53334 -3.38 -1.6 l-0.04 0 l0 1.32 l-2.7 0 l0 -14.28 l2.84 0 z M43.800000000000004 14.84 c0 1 0.21998 1.8 0.65998 2.4 s1.0267 0.9 1.76 0.9 c0.72 0 1.3033 -0.29334 1.75 -0.88 s0.67 -1.3933 0.67 -2.42 c0 -1.0133 -0.21666 -1.82 -0.65 -2.42 s-1.03 -0.9 -1.79 -0.9 c-0.74666 0 -1.3333 0.30666 -1.76 0.92 s-0.64 1.4133 -0.64 2.4 z M56.2 5.720000000000001 l0 2.34 l-2.84 0 l0 -2.34 l2.84 0 z M56.2 9.66 l0 10.34 l-2.84 0 l0 -10.34 l2.84 0 z M62.04 6.5600000000000005 l0.000019531 3.1 l2.08 0 l0 1.9 l-2.08 0 l0 5.12 c0 0.48 0.08 0.8 0.24 0.96 s0.48 0.24 0.96 0.24 c0.34666 0 0.64 -0.02666 0.88 -0.08 l0 2.22 c-0.4 0.06666 -0.96 0.1 -1.68 0.1 c-1.0933 0 -1.9067 -0.18666 -2.44 -0.56 s-0.8 -1.02 -0.8 -1.94 l0 -6.06 l-1.72 0 l0 -1.9 l1.72 0 l0 -3.1 l2.84 0 z M73.96000000000001 9.66 l0 2.14 l-5.38 6.06 l5.76 0 l0 2.14 l-9.5 0 l0 -2.14 l5.38 -6.06 l-4.98 0 l0 -2.14 l8.72 0 z"></path></g></svg>